<?xml version="1.0" standalone="no"?>
<!DOCTYPE svg PUBLIC "-//W3C//DTD SVG 20010904//EN"
 "http://www.w3.org/TR/2001/REC-SVG-20010904/DTD/svg10.dtd">
<svg version="1.0" xmlns="http://www.w3.org/2000/svg"
 width="300.000000pt" height="300.000000pt" viewBox="0 0 300.000000 300.000000"
 preserveAspectRatio="xMidYMid meet">
<metadata>
Created by potrace 1.11, written by Peter Selinger 2001-2013
</metadata>
<g transform="translate(0.000000,300.000000) scale(0.100000,-0.100000)"
fill="#000000" stroke="none">
<path d="M0 1500 l0 -1500 1500 0 1500 0 0 1500 0 1500 -1500 0 -1500 0 0
-1500z m1974 857 c44 -25 46 -25 46 -6 0 15 6 20 23 17 20 -3 22 -9 25 -79 2
-58 -1 -79 -12 -88 -20 -17 -33 -7 -41 29 -25 113 -212 148 -294 54 -69 -78
-24 -170 94 -193 141 -28 169 -36 199 -56 97 -65 103 -193 13 -272 -47 -41
-98 -57 -179 -57 -55 0 -78 6 -127 31 -54 28 -61 30 -61 13 0 -22 -23 -33 -39
-17 -6 6 -11 44 -11 87 0 43 5 81 11 87 15 15 39 5 39 -14 0 -35 35 -85 76
-109 58 -34 162 -37 221 -7 80 41 108 132 58 191 -30 35 -55 46 -160 67 -153
30 -217 79 -217 170 0 115 95 190 229 181 42 -2 76 -12 107 -29z m703 3 c33
-19 38 -20 49 -6 15 21 40 21 48 0 12 -31 6 -130 -9 -150 -15 -19 -15 -19 -30
0 -8 11 -15 28 -15 37 0 28 -57 77 -103 90 -80 21 -180 -10 -205 -66 -7 -14
-12 -43 -12 -63 1 -68 39 -94 180 -122 118 -24 147 -37 183 -80 46 -54 48
-136 4 -201 -68 -101 -230 -126 -354 -54 -41 24 -43 25 -43 6 0 -21 -17 -31
-37 -23 -19 6 -18 178 1 185 16 6 36 -11 36 -31 0 -28 40 -78 80 -101 32 -18
56 -23 109 -23 123 0 197 60 188 152 -7 64 -44 94 -144 115 -184 40 -232 67
-253 143 -24 93 31 178 140 213 44 15 146 3 187 -21z m-2078 -9 c51 -26 99
-83 107 -126 17 -93 -20 -165 -108 -209 -46 -23 -64 -26 -155 -26 l-103 0 0
-110 0 -110 91 0 c88 0 90 -1 87 -22 -3 -23 -6 -23 -159 -26 -137 -2 -157 0
-163 14 -10 25 2 34 45 34 l39 0 0 275 0 275 -34 0 c-35 0 -63 21 -51 40 4 6
72 10 186 10 158 0 184 -2 218 -19z m698 -279 c110 -294 111 -297 141 -300 17
-2 33 -9 36 -17 10 -28 -21 -36 -125 -33 -96 3 -104 4 -104 23 0 17 8 20 53
23 28 2 52 6 52 10 0 4 -12 42 -27 85 l-28 77 -151 0 -152 0 -25 -67 c-14 -38
-28 -76 -32 -85 -6 -16 0 -18 48 -18 59 0 77 -11 57 -35 -9 -11 -36 -15 -109
-15 -53 0 -102 4 -110 9 -22 14 -5 41 27 41 29 0 30 2 130 273 l100 272 -76 5
c-70 5 -77 7 -80 28 -3 22 -3 22 130 22 l133 0 112 -298z m-65 -772 c125 -47
209 -200 195 -355 -17 -182 -133 -309 -282 -308 -33 0 -77 7 -97 16 -56 24
-124 92 -155 156 -25 50 -28 67 -28 161 0 128 18 183 84 253 87 93 176 117
283 77z m-885 -16 c9 -24 -15 -34 -80 -34 l-57 0 5 -37 c3 -21 17 -137 31
-258 13 -120 26 -220 27 -222 2 -1 29 95 62 213 l60 214 37 0 c21 0 38 -1 38
-3 0 -10 120 -421 125 -425 3 -3 5 1 5 9 0 9 11 116 25 240 14 123 25 234 25
246 0 20 -6 22 -62 25 -57 3 -63 5 -66 26 -3 22 -2 22 112 22 109 0 116 -1
116 -20 0 -13 -9 -22 -25 -26 -15 -4 -25 -13 -25 -25 0 -10 -13 -143 -30 -296
-16 -152 -30 -279 -30 -280 0 -2 -17 -3 -38 -3 l-38 0 -64 225 c-35 124 -65
223 -67 221 -2 -2 -32 -102 -66 -222 l-62 -219 -37 -3 c-44 -4 -37 -31 -73
293 -32 294 -34 305 -50 305 -17 0 -38 27 -30 40 4 6 50 10 116 10 91 0 111
-3 116 -16z m1607 6 c43 -16 105 -80 117 -120 24 -78 -18 -157 -101 -195 l-40
-18 48 -51 c26 -28 70 -86 96 -128 42 -69 52 -78 78 -78 25 0 29 -4 26 -22 -2
-19 -10 -24 -45 -26 l-41 -3 -49 82 c-56 94 -110 159 -157 188 -26 16 -50 21
-110 21 l-76 0 0 -120 0 -120 54 0 c58 0 76 -11 55 -36 -10 -12 -35 -14 -128
-12 -108 3 -116 4 -116 23 0 16 8 21 43 23 l42 3 0 275 0 274 -29 0 c-42 0
-61 10 -61 31 0 18 10 19 184 19 102 0 196 -4 210 -10z m741 -11 c54 -25 99
-75 131 -143 20 -43 24 -67 24 -152 0 -122 -16 -175 -72 -239 -73 -83 -97 -90
-293 -90 -169 0 -170 0 -173 23 -3 19 1 22 32 22 l36 0 0 275 c0 264 -1 275
-19 275 -33 0 -51 11 -51 31 0 18 10 19 170 19 152 0 175 -2 215 -21z"/>
<path d="M340 2180 l0 -140 93 0 c106 0 157 18 200 69 49 58 27 147 -45 191
-28 17 -51 20 -140 20 l-108 0 0 -140z"/>
<path d="M1073 2158 l-61 -163 126 -3 c68 -1 127 -1 129 2 7 7 -114 320 -125
324 -5 1 -36 -71 -69 -160z"/>
<path d="M1076 1255 c-50 -18 -101 -67 -134 -130 -24 -45 -27 -61 -27 -150 0
-108 12 -144 71 -214 82 -98 243 -97 318 2 50 66 70 126 70 212 0 67 -4 90
-28 143 -57 124 -159 177 -270 137z"/>
<path d="M1700 1119 l0 -132 103 5 c118 5 175 28 207 81 25 40 25 64 0 105
-36 59 -71 72 -197 72 l-113 0 0 -131z"/>
<path d="M2430 975 l0 -275 88 0 c48 0 103 4 122 10 50 14 107 64 135 121 21
41 25 62 25 144 0 103 -11 144 -56 202 -44 57 -88 73 -209 73 l-105 0 0 -275z"/>
</g>
</svg>
